<?xml version="1.0" encoding="utf-8"?>
<!-- Generator: Adobe Illustrator 19.1.0, SVG Export Plug-In . SVG Version: 6.00 Build 0)  -->
<svg version="1.1" xmlns="http://www.w3.org/2000/svg" xmlns:xlink="http://www.w3.org/1999/xlink" x="0px" y="0px"
	 viewBox="0 0 100 100" enable-background="new 0 0 100 100" xml:space="preserve">
<g id="Layer_2">
	<rect fill="#FF9191" stroke="#000000" stroke-miterlimit="10" width="100" height="100"/>
</g>
<g id="Layer_1">
	<path fill="#FFD55D" d="M96.7,52.7c1.4,23.9-16.2,44-45.1,44C21.8,96.7,7.2,78,7.3,52.9c0-24.1,16.5-44.3,44.5-44.2
		C75.4,8.8,94.7,17.5,96.7,52.7z"/>
	<path fill="#FEE37F" d="M95.8,52.9c1.3,23-20.5,43.6-44.2,43.1C22.5,95.3,8.2,77.2,8.2,53c0-23.3,16.2-42.7,43.6-42.6
		C74.9,10.6,93.8,19,95.8,52.9z"/>
	
		<radialGradient id="SVGID_1_" cx="51.939" cy="70.3589" r="35.8998" gradientTransform="matrix(1 0 0 1.0097 0 -0.6818)" gradientUnits="userSpaceOnUse">
		<stop  offset="2.551020e-02" style="stop-color:#FFFFFF"/>
		<stop  offset="0.5199" style="stop-color:#FFFFFF"/>
		<stop  offset="0.5836" style="stop-color:#FFF8DE"/>
		<stop  offset="0.6628" style="stop-color:#FEF0BC"/>
		<stop  offset="0.7436" style="stop-color:#FEEAA1"/>
		<stop  offset="0.8258" style="stop-color:#FEE68E"/>
		<stop  offset="0.9102" style="stop-color:#FEE483"/>
		<stop  offset="1" style="stop-color:#FEE37F"/>
	</radialGradient>
	<path fill="url(#SVGID_1_)" d="M46.4,49.6c7.6,3.3,25.9,10.5,39.3-3.3c0.3-0.2,0.6-0.4,0.8-0.7c1.2-0.7,4.3-2,7.7,1.1
		c0.9,0.8,1.4,2,1.5,3.3c0.4,8.3-0.5,42.7-42.6,46c0,0-46,3.4-45-47.8c-1.5,0.3,18.2,10.9,32.4,1.9C42.4,49,44.5,48.7,46.4,49.6z"/>
	<path fill="#FFD55D" d="M35.5,12c0,0-12.6-11.3-15.6-8.7c0,0-4.7,8.5-2.6,20.4C17.3,23.7,26.8,13.9,35.5,12z"/>
	<path fill="#ECC45D" d="M19.6,20.6c2-2,6.9-6.5,12.9-8c0.5-0.1,0.7-0.8,0.3-1.2c-2.8-2.2-9.2-8.5-11.5-7.3
		c-0.8,0.4-1.2,1.2-1.2,1.3c-0.4,1.3-2.4,8.2-1.6,14.8C18.5,20.7,19.2,21,19.6,20.6z"/>
	<path fill="#FFD55D" d="M86,22c0,0,3.9-18.1,0.3-19.3C86,1.3,73.1,6,66.2,11.4C66.2,11.4,81.6,16.1,86,22z"/>
	<path fill="#ECC45D" d="M71,10.8c0,0,9.8,2.4,13.9,8.9c0.2,0.3,0.6,0.2,0.6-0.1c0.7-2.8,2.8-12-0.5-14.9c-0.4-0.3-0.9-0.5-1.4-0.4
		C81.7,4.7,76.1,5.8,71,10.8L71,10.8z"/>
	<path fill="#602502" stroke="#000000" stroke-miterlimit="10" d="M35.7,62.9c-0.3-0.9-0.3-1.9,0.1-2.8c0.6-1.4,2.1-3.3,5.5-3.2
		c0,0,4.4-0.3,6,3.9c0.2,0.5,0.2,1.1,0.1,1.6c-0.4,1.4-1.5,4.1-5.2,5.5c-0.3,0.1-0.7,0.1-1,0.1C39.9,67.8,37.1,66.7,35.7,62.9z"/>
	<ellipse fill="#531A02" cx="51.1" cy="65.8" rx="0.2" ry="0.2"/>
	<ellipse fill="#531A02" cx="46.9" cy="69.9" rx="0.2" ry="0.2"/>
	<ellipse fill="#531A02" cx="34" cy="69.1" rx="0.2" ry="0.2"/>
	<ellipse fill="#531A02" cx="30.6" cy="65.7" rx="0.2" ry="0.2"/>
	<ellipse fill="#531A02" cx="30.1" cy="69.1" rx="0.2" ry="0.2"/>
	<ellipse fill="#531A02" cx="30.1" cy="73.1" rx="0.2" ry="0.2"/>
	<ellipse fill="#531A02" cx="47.5" cy="73.6" rx="0.2" ry="0.2"/>
	<ellipse fill="#531A02" cx="56.2" cy="69.7" rx="0.2" ry="0.2"/>
	<ellipse fill="#531A02" cx="56.8" cy="73.8" rx="0.2" ry="0.2"/>
	<ellipse fill="#531A02" cx="52.6" cy="69.6" rx="0.2" ry="0.2"/>
	<ellipse fill="#531A02" cx="52.6" cy="73.2" rx="0.2" ry="0.2"/>
	<ellipse fill="#531A02" cx="56.3" cy="65.7" rx="0.2" ry="0.2"/>
	<path fill="#FFFFFF" d="M53.1,30.2c0,0,0.6-9.9,6-9.3c0,0,2.5,0,8.7,7.8C66,27.6,56.9,26.5,53.1,30.2z"/>
	<path fill="#FFFFFF" d="M28.9,28.7c0,0,8.6-10.3,14-8.8c5.3,1.5,2.2,10.4,2.2,10.4C45,30.2,41.4,22.5,28.9,28.7z"/>
	
		<radialGradient id="SVGID_2_" cx="184.6429" cy="85.6638" r="38.4955" gradientTransform="matrix(1.630496e-11 -0.3632 0.7263 3.260993e-11 4.1666 104.1902)" gradientUnits="userSpaceOnUse">
		<stop  offset="0" style="stop-color:#F52A29"/>
		<stop  offset="0.3318" style="stop-color:#F52C2B"/>
		<stop  offset="0.4846" style="stop-color:#F63431"/>
		<stop  offset="0.6007" style="stop-color:#F7403D"/>
		<stop  offset="0.6983" style="stop-color:#F8534D"/>
		<stop  offset="0.7843" style="stop-color:#FA6A62"/>
		<stop  offset="0.8609" style="stop-color:#FD877B"/>
		<stop  offset="0.9205" style="stop-color:#FFA394"/>
	</radialGradient>
	<path fill="url(#SVGID_2_)" stroke="#CB1F1C" stroke-miterlimit="10" d="M66,29.3c-0.1-0.2,1.2-1.6,1.4-1.8
		c1.1-1.2,2.3-2.3,3.8-2.9c1.7-0.7,3.5-0.7,5.2,0.1c7.4,3.7,5.4,13,0.9,18.2c-3,3.4-7.1,5.6-11.2,7.2c-0.2,0.1-1.3-0.8-1.5-0.9
		c-1.3-0.8-2.5-1.6-3.7-2.6c-3.2-2.5-6.2-5.6-7.9-9.3c-1-2.1-1.7-4.7-1.3-7c0.3-1.7,1.7-3.2,3-4.3c3.3-2.9,7.1-2.2,9.9,1.1
		C65,27.8,65.5,28.6,66,29.3z"/>
	
		<radialGradient id="SVGID_3_" cx="85.515" cy="85.6638" r="38.4955" gradientTransform="matrix(1.630496e-11 -0.3632 0.7263 3.260993e-11 -31.8334 68.1902)" gradientUnits="userSpaceOnUse">
		<stop  offset="0" style="stop-color:#F52A29"/>
		<stop  offset="0.3318" style="stop-color:#F52C2B"/>
		<stop  offset="0.4846" style="stop-color:#F63431"/>
		<stop  offset="0.6007" style="stop-color:#F7403D"/>
		<stop  offset="0.6983" style="stop-color:#F8534D"/>
		<stop  offset="0.7843" style="stop-color:#FA6A62"/>
		<stop  offset="0.8609" style="stop-color:#FD877B"/>
		<stop  offset="0.9205" style="stop-color:#FFA394"/>
	</radialGradient>
	<path fill="url(#SVGID_3_)" stroke="#CB1F1C" stroke-miterlimit="10" d="M30,29.3c-0.1-0.2,1.2-1.6,1.4-1.8
		c1.1-1.2,2.3-2.3,3.8-2.9c1.7-0.7,3.5-0.7,5.2,0.1c7.4,3.7,5.4,13,0.9,18.2c-3,3.4-7.1,5.6-11.2,7.2c-0.2,0.1-1.3-0.8-1.5-0.9
		c-1.3-0.8-2.5-1.6-3.7-2.6c-3.2-2.5-6.2-5.6-7.9-9.3c-1-2.1-1.7-4.7-1.3-7c0.3-1.7,1.7-3.2,3-4.3c3.3-2.9,7.1-2.2,9.9,1.1
		C29,27.8,29.5,28.6,30,29.3z"/>
	<g>
		<path fill="#531B02" stroke="#531B02" stroke-miterlimit="10" d="M41.8,76.6c-1.2,0.8-2.3,1.8-3.8,2.1c-1.8,0.4-4.1,0-5.7-0.8
			c-1.8-0.9-1.9-3.3-4.5-2.5c-3.8,1.1-3.3,5.8-0.8,8c1.8,1.6,4.3,2.6,6.7,3.3c8.2,2.7,17.4,2,25.4-1.1c3-1.2,5.9-2.7,8.6-4.4
			c0.9-0.6,1.2-1.7,0.8-2.5c-0.3-0.7-1.1-1.2-2.8-1c-5.3,1.8-12,3.3-17.6,2c-1.3-0.3-3.2-0.8-3.6-2.1c-0.2-0.6-0.4-1.3-1.1-1.5
			C42.8,76,42.3,76.3,41.8,76.6C41.8,76.6,41.8,76.6,41.8,76.6z"/>
		<path fill="#FFFFFF" stroke="#531B02" stroke-miterlimit="10" d="M42.3,78.8c-1.1,0.6-2.1,1.3-3.4,1.6c-1.7,0.3-3.7,0.1-5.2-0.4
			c-1.7-0.6-3-3.2-5.4-2.6c-3.4,0.9-1.8,4.9,0.8,6.2c1.8,0.9,4,1.8,6.1,2.3c7.4,1.7,15.6,1.3,22.8-1c2.8-0.9,5.4-2,7.9-3.3
			c0.8-0.4,1.1-1.2,0.7-1.8c-0.3-0.5-1-0.8-2.5-0.6c-4.9,1.3-10.9,2.5-16.1,1.7c-1.2-0.2-2.9-0.5-3.3-1.4c-0.1-0.4-0.4-0.9-1-1
			C43.3,78.4,42.8,78.6,42.3,78.8C42.3,78.8,42.3,78.8,42.3,78.8z"/>
		
			<radialGradient id="SVGID_4_" cx="233.9047" cy="161.9568" r="22.1959" gradientTransform="matrix(0.32 -1.880594e-02 2.024298e-02 0.2973 -19.0318 47.6441)" gradientUnits="userSpaceOnUse">
			<stop  offset="0" style="stop-color:#FFFFFF"/>
			<stop  offset="1.132900e-02" style="stop-color:#FCFFFF"/>
			<stop  offset="0.1673" style="stop-color:#D2FBFF"/>
			<stop  offset="0.3268" style="stop-color:#B0F7FF"/>
			<stop  offset="0.4882" style="stop-color:#95F4FF"/>
			<stop  offset="0.6523" style="stop-color:#82F3FF"/>
			<stop  offset="0.8206" style="stop-color:#77F1FF"/>
			<stop  offset="1" style="stop-color:#73F1FF"/>
		</radialGradient>
		<path fill="url(#SVGID_4_)" stroke="#8BD6FF" stroke-miterlimit="10" d="M52.9,86.1c0-0.2,3.8-0.5,7.7-2.4c1.1-0.5,2,0.9,0.9,1.5
			c-0.1,0.1-0.3,0.1-0.4,0.2c-0.4,0.2-0.6,0.5-0.5,0.9l0.4,2.8c0,0.3,0.3,0.6,0.6,0.7c1.4,0.5,4.7,2.1,2.8,6.2
			c-1,2.1-3.3,3.5-5.8,2.8c-0.9-0.2-1.9-0.6-2.5-1.2c-0.5-0.5-0.7-1.3-0.9-1.9c-0.2-0.8-0.3-1.7-0.2-2.5c0.1-0.4,0.2-0.8,0.5-1.2
			c0.3-0.4,0.7-0.6,0.9-1c0.4-0.5,0.2-1.3,0.1-1.9c0-0.5-0.1-1-0.1-1.5c0-0.4-0.4-0.8-0.9-0.8C54.6,86.8,53,86.6,52.9,86.1z"/>
	</g>
</g>
</svg>
