<?xml version="1.0" encoding="utf-8"?>
<!-- Generator: Adobe Illustrator 19.1.0, SVG Export Plug-In . SVG Version: 6.00 Build 0)  -->
<svg version="1.1" xmlns="http://www.w3.org/2000/svg" xmlns:xlink="http://www.w3.org/1999/xlink" x="0px" y="0px"
	 viewBox="0 0 100 100" enable-background="new 0 0 100 100" xml:space="preserve">
<g id="Layer_6">
	<rect x="0.5" y="0" fill="#FEFB8E" stroke="#000000" stroke-miterlimit="10" width="99" height="100"/>
</g>
<g id="Layer_5">
</g>
<g id="Layer_3">
	<path fill="#FFD55D" d="M95.8,53.1c1.4,23.9-16.2,44-45.1,44c-29.8,0-44.3-18.7-44.3-43.8C6.4,29.2,22.9,9,50.9,9.1
		C74.5,9.2,93.8,18,95.8,53.1z"/>
	<path fill="#FEE37F" d="M94.9,53.3c1.3,23-20.5,43.6-44.2,43.1C21.6,95.7,7.3,77.7,7.3,53.5c0-23.3,16.2-42.7,43.6-42.6
		C74,11,92.9,19.4,94.9,53.3z"/>
	
		<radialGradient id="SVGID_1_" cx="51.0509" cy="70.7886" r="35.8998" gradientTransform="matrix(1 0 0 1.0097 0 -0.686)" gradientUnits="userSpaceOnUse">
		<stop  offset="2.551020e-02" style="stop-color:#FFFFFF"/>
		<stop  offset="0.5199" style="stop-color:#FFFFFF"/>
		<stop  offset="0.5836" style="stop-color:#FFF8DE"/>
		<stop  offset="0.6628" style="stop-color:#FEF0BC"/>
		<stop  offset="0.7436" style="stop-color:#FEEAA1"/>
		<stop  offset="0.8258" style="stop-color:#FEE68E"/>
		<stop  offset="0.9102" style="stop-color:#FEE483"/>
		<stop  offset="1" style="stop-color:#FEE37F"/>
	</radialGradient>
	<path fill="url(#SVGID_1_)" d="M45.5,50c7.6,3.3,25.9,10.5,39.3-3.3c0.3-0.2,0.6-0.4,0.8-0.7c1.2-0.7,4.3-2,7.7,1.1
		c0.9,0.8,1.4,2,1.5,3.3c0.4,8.3-0.5,42.7-42.6,46c0,0-46,3.4-45-47.8c-1.5,0.3,18.2,10.9,32.4,1.9C41.5,49.4,43.6,49.2,45.5,50z"/>
</g>
<g id="Layer_1">
	<path fill="#FFD55D" d="M34.6,12.5c0,0-12.6-11.3-15.6-8.7c0,0-4.7,8.5-2.6,20.4C16.4,24.1,25.9,14.3,34.6,12.5z"/>
	<path fill="#ECC45D" d="M18.7,21c2-2,6.9-6.5,12.9-8c0.5-0.1,0.7-0.8,0.3-1.2c-2.8-2.2-9.2-8.5-11.5-7.3c-0.8,0.4-1.2,1.2-1.2,1.3
		c-0.4,1.3-2.4,8.2-1.6,14.8C17.7,21.2,18.3,21.4,18.7,21z"/>
	<path fill="#FFD55D" d="M85.1,22.4c0,0,3.9-18.1,0.3-19.3c-0.4-1.3-13.2,3.3-20.1,8.8C65.3,11.9,80.7,16.6,85.1,22.4z"/>
	<path fill="#ECC45D" d="M70.1,11.3c0,0,9.8,2.4,13.9,8.9c0.2,0.3,0.6,0.2,0.6-0.1c0.7-2.8,2.8-12-0.5-14.9
		c-0.4-0.3-0.9-0.5-1.4-0.4C80.8,5.1,75.2,6.2,70.1,11.3L70.1,11.3z"/>
	<path fill="#FFFFFF" d="M53.7,38.7c0,0-2.9-9.4,2.3-10.9c0,0,2.4-0.9,10.9,4.2C64.8,31.7,55.9,33.9,53.7,38.7z"/>
	<path fill="#FCFAFA" stroke="#602502" stroke-miterlimit="10" d="M52.4,41.3c0,0,0-10.4,16.4-11c1.3,0,5.6,0.2,7.7,0.9
		c2.4,0.8,9.6,6.6,5.3,14.4c-2.4,4.4-8.8,5.2-14,4.8C61,50,51.8,48.1,52.4,41.3z"/>
	<g>
		<path fill="#531A02" d="M82.6,39.9c0.7,4.6-2.2,10.7-10.6,10.6c-5.6-0.1-9.6-5.5-9.6-10.6s4.9-9.1,10.5-9.1
			C78.5,30.8,81.8,34.9,82.6,39.9z"/>
		<path fill="#FFFFFF" d="M67,33.3c1-0.7,2.6-1.2,4.6-0.1c1.1,0.6,1.1,1.9,0,2.5c-1.2,0.7-2.9,1.1-4.7-0.1
			C66.1,35,66.1,33.8,67,33.3z"/>
		<ellipse fill="#FFFFFF" cx="75.4" cy="44" rx="1.8" ry="1.5"/>
	</g>
	<g>
		<path fill="#FFFFFF" d="M19.8,33.8c0,0,10.3-8.7,15.3-6.4S35.5,38,35.5,38C35.5,37.9,33.2,29.7,19.8,33.8z"/>
		<g>
			<path fill="#FCFAFA" stroke="#602502" stroke-miterlimit="10" d="M12.5,46.2c2.1,3.6,15.2,9,24,0.4c4-3.9,1.5-10.9-3.3-13.7
				c-4.5-2.6-18.7-0.6-21,6.1C11.5,41.2,11.1,43.7,12.5,46.2z"/>
			<g>
				<path fill="#531A02" d="M38.2,40.3c0.6,5-3,9.3-8,9.7s-9.5-3.4-10-8.4c-0.6-5,3-9.3,8-9.7S37.7,35.3,38.2,40.3z"/>
				<path fill="#FFFFFF" d="M23.3,35c0.8-0.7,2.2-1.4,4.1-0.4c1,0.5,1.2,1.9,0.3,2.5c-1,0.7-2.5,1.3-4.2,0.2
					C22.7,36.8,22.6,35.6,23.3,35z"/>
				<path fill="#FFFFFF" d="M33.6,45.1c0.1,0.8-0.6,1.5-1.5,1.6c-0.9,0.1-1.7-0.5-1.8-1.3s0.6-1.5,1.5-1.6S33.5,44.3,33.6,45.1z"/>
			</g>
		</g>
	</g>
</g>
<g id="Layer_4">
	<path fill="#602502" stroke="#000000" stroke-miterlimit="10" d="M34.8,63.4c-0.3-0.9-0.3-1.9,0.1-2.8c0.6-1.4,2.1-3.3,5.5-3.2
		c0,0,4.4-0.3,6,3.9c0.2,0.5,0.2,1.1,0.1,1.6c-0.4,1.4-1.5,4.1-5.2,5.5c-0.3,0.1-0.7,0.1-1,0.1C39,68.2,36.2,67.1,34.8,63.4z"/>
	<path fill="#531A02" stroke="#531A02" stroke-miterlimit="10" d="M40.3,72.4c-0.7,2.3-3.1,7.7-11.5,6.6c-0.1,0-0.2,0.3-0.1,0.4
		c1.6,1.3,5,4.1,14.7,4c0.2,0,8.3,0.3,17.1-5.3c0.3-0.2,0.1-0.6-0.2-0.6c-2.9,0.7-7.7,2.1-11.7,2.1c-2.2,0-4.2-1-5.6-2.8
		c-0.9-1.1-1.8-2.6-2.3-4.3C40.7,72.2,40.4,72.2,40.3,72.4z"/>
	<ellipse fill="#531A02" cx="50.2" cy="66.3" rx="0.2" ry="0.2"/>
	<ellipse fill="#531A02" cx="46" cy="70.3" rx="0.2" ry="0.2"/>
	<ellipse fill="#531A02" cx="33.1" cy="69.5" rx="0.2" ry="0.2"/>
	<ellipse fill="#531A02" cx="29.7" cy="66.1" rx="0.2" ry="0.2"/>
	<ellipse fill="#531A02" cx="29.2" cy="69.5" rx="0.2" ry="0.2"/>
	<ellipse fill="#531A02" cx="29.2" cy="73.5" rx="0.2" ry="0.2"/>
	<ellipse fill="#531A02" cx="46.6" cy="74" rx="0.2" ry="0.2"/>
	<ellipse fill="#531A02" cx="55.3" cy="70.2" rx="0.2" ry="0.2"/>
	<ellipse fill="#531A02" cx="55.9" cy="74.2" rx="0.2" ry="0.2"/>
	<ellipse fill="#531A02" cx="51.7" cy="70" rx="0.2" ry="0.2"/>
	<ellipse fill="#531A02" cx="51.7" cy="73.7" rx="0.2" ry="0.2"/>
	<ellipse fill="#531A02" cx="55.4" cy="66.1" rx="0.2" ry="0.2"/>
</g>
</svg>
