<?xml version="1.0" encoding="utf-8"?>
<!-- Generator: Adobe Illustrator 19.1.0, SVG Export Plug-In . SVG Version: 6.00 Build 0)  -->
<svg version="1.1" xmlns="http://www.w3.org/2000/svg" xmlns:xlink="http://www.w3.org/1999/xlink" x="0px" y="0px"
	 viewBox="0 0 100 100" enable-background="new 0 0 100 100" xml:space="preserve">
<g id="Layer_2">
	<rect fill="#FFFFFF" stroke="#000000" stroke-miterlimit="10" width="100" height="100"/>
</g>
<g id="Layer_1">
	<path fill="#FFD55D" d="M96.7,52.7c1.4,23.9-16.2,44-45.1,44C21.8,96.7,7.2,78,7.3,52.9c0-24.1,16.5-44.3,44.5-44.2
		C75.4,8.8,94.7,17.5,96.7,52.7z"/>
	<path fill="#FEE37F" d="M95.8,52.9c1.3,23-20.5,43.6-44.2,43.1C22.5,95.3,8.2,77.2,8.2,53c0-23.3,16.2-42.7,43.6-42.6
		C74.9,10.6,93.8,19,95.8,52.9z"/>
	
		<radialGradient id="SVGID_1_" cx="51.939" cy="70.3589" r="35.8998" gradientTransform="matrix(1 0 0 1.0097 0 -0.6818)" gradientUnits="userSpaceOnUse">
		<stop  offset="2.551020e-02" style="stop-color:#FFFFFF"/>
		<stop  offset="0.5199" style="stop-color:#FFFFFF"/>
		<stop  offset="0.5836" style="stop-color:#FFF8DE"/>
		<stop  offset="0.6628" style="stop-color:#FEF0BC"/>
		<stop  offset="0.7436" style="stop-color:#FEEAA1"/>
		<stop  offset="0.8258" style="stop-color:#FEE68E"/>
		<stop  offset="0.9102" style="stop-color:#FEE483"/>
		<stop  offset="1" style="stop-color:#FEE37F"/>
	</radialGradient>
	<path fill="url(#SVGID_1_)" d="M46.4,49.6c7.6,3.3,25.9,10.5,39.3-3.3c0.3-0.2,0.6-0.4,0.8-0.7c1.2-0.7,4.3-2,7.7,1.1
		c0.9,0.8,1.4,2,1.5,3.3c0.4,8.3-0.5,42.7-42.6,46c0,0-46,3.4-45-47.8c-1.5,0.3,18.2,10.9,32.4,1.9C42.4,49,44.5,48.7,46.4,49.6z"/>
	<path fill="#FFD55D" d="M35.5,12c0,0-12.6-11.3-15.6-8.7c0,0-4.7,8.5-2.6,20.4C17.3,23.7,26.8,13.9,35.5,12z"/>
	<path fill="#ECC45D" d="M19.6,20.6c2-2,6.9-6.5,12.9-8c0.5-0.1,0.7-0.8,0.3-1.2c-2.8-2.2-9.2-8.5-11.5-7.3
		c-0.8,0.4-1.2,1.2-1.2,1.3c-0.4,1.3-2.4,8.2-1.6,14.8C18.5,20.7,19.2,21,19.6,20.6z"/>
	<path fill="#FFD55D" d="M86,22c0,0,3.9-18.1,0.3-19.3C86,1.3,73.1,6,66.2,11.4C66.2,11.4,81.6,16.1,86,22z"/>
	<path fill="#ECC45D" d="M71,10.8c0,0,9.8,2.4,13.9,8.9c0.2,0.3,0.6,0.2,0.6-0.1c0.7-2.8,2.8-12-0.5-14.9c-0.4-0.3-0.9-0.5-1.4-0.4
		C81.7,4.7,76.1,5.8,71,10.8L71,10.8z"/>
	<path fill="#FFFFFF" d="M54.6,38.3c0,0-2.9-9.4,2.3-10.9c0,0,2.4-0.9,10.9,4.2C65.7,31.3,56.8,33.5,54.6,38.3z"/>
	<path fill="#FCFAFA" stroke="#602502" stroke-miterlimit="10" d="M53.7,43.8c0,0-2.8-15.9,15.9-13.9c1.3,0.1,5.6,0.2,7.7,0.9
		c2.4,0.8,9.6,6.6,5.3,14.4c-2.4,4.4-11.4,7-14.8,3.1C62.2,41.9,53.2,50.6,53.7,43.8z"/>
	<g>
		<path fill="#531A02" d="M83.5,39.5c0.7,4.6-2.2,10.7-10.6,10.6c-5.6-0.1-9.6-5.5-9.6-10.6s4.9-9.1,10.5-9.1
			C79.4,30.4,82.7,34.5,83.5,39.5z"/>
		<path fill="#FFFFFF" d="M67.9,32.8c1-0.7,2.6-1.2,4.6-0.1c1.1,0.6,1.1,1.9,0,2.5c-1.2,0.7-2.9,1.1-4.7-0.1
			C67,34.6,67,33.4,67.9,32.8z"/>
		<ellipse fill="#FFFFFF" cx="76.2" cy="43.6" rx="1.8" ry="1.5"/>
	</g>
	<path fill="#FFFFFF" d="M40.3,37.5c0,0,2.8-8.4-2.2-9.7c0,0-2.3-0.8-10.3,3.8C29.7,31.3,38.2,33.3,40.3,37.5z"/>
	<path fill="#FCFAFA" stroke="#602502" stroke-miterlimit="10" d="M14.4,44.6c0,0-2.5-14.2,14.2-12.4c1.2,0.1,4.9,0.2,6.9,0.8
		c2.1,0.7,8.5,5.9,4.7,12.8C38,49.8,30,52.1,27,48.7C21.9,42.9,13.9,50.7,14.4,44.6z"/>
	<g>
		<path fill="#531A02" d="M41,40.8c0.7,4.1-1.9,9.5-9.5,9.4c-5-0.1-8.6-4.9-8.6-9.4s4.4-8.1,9.4-8.1S40.3,36.3,41,40.8z"/>
		<path fill="#FFFFFF" d="M27,34.8c0.9-0.6,2.3-1.1,4.1-0.1c0.9,0.5,0.9,1.7,0,2.2c-1.1,0.6-2.6,1-4.1-0.1
			C26.3,36.4,26.3,35.3,27,34.8z"/>
		<ellipse fill="#FFFFFF" cx="34.5" cy="44.5" rx="1.6" ry="1.3"/>
	</g>
	<path fill="#602502" stroke="#000000" stroke-miterlimit="10" d="M35.7,62.9c-0.3-0.9-0.3-1.9,0.1-2.8c0.6-1.4,2.1-3.3,5.5-3.2
		c0,0,4.4-0.3,6,3.9c0.2,0.5,0.2,1.1,0.1,1.6c-0.4,1.4-1.5,4.1-5.2,5.5c-0.3,0.1-0.7,0.1-1,0.1C39.9,67.8,37.1,66.7,35.7,62.9z"/>
	<ellipse fill="#531A02" cx="51.1" cy="65.8" rx="0.2" ry="0.2"/>
	<ellipse fill="#531A02" cx="46.9" cy="69.9" rx="0.2" ry="0.2"/>
	<ellipse fill="#531A02" cx="34" cy="69.1" rx="0.2" ry="0.2"/>
	<ellipse fill="#531A02" cx="30.6" cy="65.7" rx="0.2" ry="0.2"/>
	<ellipse fill="#531A02" cx="30.1" cy="69.1" rx="0.2" ry="0.2"/>
	<ellipse fill="#531A02" cx="30.1" cy="73.1" rx="0.2" ry="0.2"/>
	<ellipse fill="#531A02" cx="47.5" cy="73.6" rx="0.2" ry="0.2"/>
	<ellipse fill="#531A02" cx="56.2" cy="69.7" rx="0.2" ry="0.2"/>
	<ellipse fill="#531A02" cx="56.8" cy="73.8" rx="0.2" ry="0.2"/>
	<ellipse fill="#531A02" cx="52.6" cy="69.6" rx="0.2" ry="0.2"/>
	<ellipse fill="#531A02" cx="52.6" cy="73.2" rx="0.2" ry="0.2"/>
	<ellipse fill="#531A02" cx="56.3" cy="65.7" rx="0.2" ry="0.2"/>
	<path fill="#FFFFFF" stroke="#C74F4B" stroke-width="2" stroke-miterlimit="10" d="M26,75.5c2.4,1.4,7.4,3.5,11.8-0.3
		c0.4-0.4,1.1-0.4,1.5,0c2.6,2.1,11.8,7.6,29.4-0.5c0.3-0.2,0.7-0.2,1.1,0c4.1,2,2,6.9-0.4,9.4c-1.9,1.9-4.2,4.5-6.7,5.6
		c-7.4,3.3-16.6,3.6-24.7,1.8c-5.1-1.1-9.2-3.6-12.9-7c-0.1-0.1-0.3-0.9-0.3-0.9c-0.2-1-1.5-4.2-1-7.2C24,75.5,25.2,75,26,75.5z"/>
	<path fill="none" stroke="#531B02" stroke-width="2" stroke-linecap="round" stroke-miterlimit="10" d="M25.6,74.6
		c2.5,1.5,7.5,3.7,12-0.3c0.4-0.4,1.1-0.4,1.6,0c2.6,2.2,12,8,29.9-0.5c0.3-0.2,0.7-0.2,1.1,0c1.2,0.6,2.2,1.7,2.4,3
		c0.5,2.8-0.1,5.2-1.6,7.5c-2.4,3.8-5.8,5.8-9.9,7.5c-7.4,3-16.7,2.5-24.4,0.2c-4.8-1.5-9.1-4.3-12.4-8c-0.1-0.1-0.2-0.3-0.2-0.4
		c-0.2-1-1.1-4.9-0.6-8C23.6,74.6,24.7,74.1,25.6,74.6z"/>
	<g>
		<path d="M26.5,81.7c0,0,0.7,0.2,1.8,0.4c1.1,0.3,2.8,0.6,4.8,1c1,0.2,2.1,0.4,3.2,0.5c1.1,0.2,2.4,0.3,3.6,0.5
			c1.2,0.2,2.5,0.2,3.9,0.4c1.3,0.1,2.7,0.1,4,0.2c1.3,0,2.7,0.1,4,0c1.3-0.1,2.6-0.1,3.9-0.3c1.2-0.2,2.5-0.2,3.6-0.5
			c0.6-0.1,1.1-0.2,1.7-0.3c0.3,0,0.5-0.1,0.8-0.1c0.3-0.1,0.5-0.1,0.7-0.2c1-0.3,1.9-0.5,2.7-0.7c0.8-0.2,1.4-0.5,2-0.7
			c1.1-0.4,1.8-0.6,1.8-0.6s-0.6,0.3-1.7,0.8c-0.5,0.2-1.2,0.6-2,0.9c-0.8,0.3-1.7,0.6-2.6,0.9c-0.2,0.1-0.5,0.2-0.7,0.2
			c-0.3,0.1-0.5,0.1-0.8,0.2c-0.5,0.1-1.1,0.2-1.7,0.4c-1.1,0.3-2.4,0.4-3.6,0.6c-1.3,0.2-2.6,0.3-3.9,0.4c-1.3,0.1-2.7,0-4.1,0.1
			c-1.4,0-2.7-0.1-4.1-0.2c-1.3-0.1-2.6-0.2-3.9-0.4c-1.3-0.2-2.5-0.4-3.6-0.6c-1.1-0.2-2.2-0.5-3.2-0.7c-2-0.5-3.6-1-4.7-1.3
			C27.1,82,26.5,81.7,26.5,81.7z"/>
	</g>
	<g>
		<path d="M33.4,80.3c0,0,0.2,0.4,0.3,1c0.1,0.6,0.2,1.4,0.2,2.2c0,0.8-0.1,1.6-0.2,2.2c-0.1,0.6-0.2,1-0.2,1s-0.2-0.4-0.3-1
			c-0.1-0.6-0.2-1.4-0.2-2.2c0-0.8,0.1-1.6,0.2-2.2C33.2,80.7,33.4,80.3,33.4,80.3z"/>
	</g>
	<g>
		<path d="M40.4,81.3c0,0,0.2,0.4,0.3,1c0.1,0.6,0.2,1.4,0.2,2.2c0,0.8-0.1,1.6-0.2,2.2c-0.1,0.6-0.2,1-0.2,1s-0.2-0.4-0.3-1
			c-0.1-0.6-0.2-1.4-0.2-2.2c0-0.8,0.1-1.6,0.2-2.2C40.2,81.7,40.4,81.3,40.4,81.3z"/>
	</g>
	<g>
		<path d="M47.4,82.3c0,0,0.2,0.4,0.3,1c0.1,0.6,0.2,1.4,0.2,2.2c0,0.8-0.1,1.6-0.2,2.2c-0.1,0.6-0.2,1-0.2,1s-0.2-0.4-0.3-1
			c-0.1-0.6-0.2-1.4-0.2-2.2c0-0.8,0.1-1.6,0.2-2.2C47.2,82.7,47.4,82.3,47.4,82.3z"/>
	</g>
	<g>
		<path d="M55.4,82.3c0,0,0.2,0.3,0.3,0.9c0.1,0.5,0.2,1.2,0.2,1.9c0,0.7-0.1,1.3-0.2,1.9c-0.1,0.5-0.2,0.9-0.2,0.9
			s-0.2-0.3-0.3-0.8c-0.1-0.5-0.2-1.2-0.2-1.9c0-0.7,0.1-1.4,0.2-1.9C55.2,82.6,55.4,82.3,55.4,82.3z"/>
	</g>
	<g>
		<path d="M63.4,80.3c0,0,0.2,0.3,0.3,0.8c0.1,0.5,0.2,1.1,0.2,1.7c0,0.6-0.1,1.2-0.2,1.7c-0.1,0.5-0.2,0.8-0.2,0.8
			s-0.2-0.3-0.3-0.8c-0.1-0.5-0.2-1.1-0.2-1.7c0-0.6,0.1-1.2,0.2-1.7C63.2,80.6,63.4,80.3,63.4,80.3z"/>
	</g>
</g>
</svg>
