<?xml version="1.0" encoding="utf-8"?>
<!-- Generator: Adobe Illustrator 19.2.0, SVG Export Plug-In . SVG Version: 6.00 Build 0)  -->
<svg version="1.1" xmlns="http://www.w3.org/2000/svg" xmlns:xlink="http://www.w3.org/1999/xlink" x="0px" y="0px"
	 viewBox="0 0 100 100" enable-background="new 0 0 100 100" xml:space="preserve">
<g id="Layer_2">
</g>
<g id="Layer_1">
	<path fill="#FFFFFF" d="M28.9,28.7c0,0,8.6-10.3,14-8.8c5.3,1.5,2.2,10.4,2.2,10.4C45,30.2,41.4,22.5,28.9,28.7z"/>
	<path fill="#F67D66" stroke="#333333" stroke-miterlimit="10" d="M50.6,27.9c-0.4-0.6,3.9-5.2,4.3-5.6c3.3-3.8,7.3-7.2,12-9.2
		c5.4-2.4,11.3-2.3,16.6,0.3c23.7,11.8,17.4,41.5,2.8,57.9C76.8,82,63.8,89.1,50.6,94.1c-0.7,0.3-4.2-2.4-4.8-2.8
		c-4-2.5-8-5.2-11.7-8.1c-10.2-8-19.8-17.7-25.2-29.6c-3-6.7-5.5-14.9-4.2-22.2c1-5.5,5.3-10.2,9.4-13.8c10.7-9.4,22.7-7.1,31.6,3.5
		C47.5,23.1,49.1,25.5,50.6,27.9z"/>
</g>
</svg>
