<?xml version="1.0" encoding="utf-8"?>
<!-- Generator: Adobe Illustrator 19.2.0, SVG Export Plug-In . SVG Version: 6.00 Build 0)  -->
<svg version="1.1"
	 id="svg2" xmlns:cc="http://creativecommons.org/ns#" xmlns:dc="http://purl.org/dc/elements/1.1/" xmlns:rdf="http://www.w3.org/1999/02/22-rdf-syntax-ns#" xmlns:svg="http://www.w3.org/2000/svg"
	 xmlns="http://www.w3.org/2000/svg" xmlns:xlink="http://www.w3.org/1999/xlink" x="0px" y="0px" viewBox="0 0 254 238.7"
	 style="enable-background:new 0 0 254 238.7;" xml:space="preserve">
<style type="text/css">
	.st0{fill:#EE3A43;}
	.st1{enable-background:new    ;}
	.st2{fill:#FFFFFF;}
	.st3{fill:none;stroke:#EE3A43;stroke-miterlimit:10;}
</style>
<path id="path8" class="st0" d="M126.9,2.5c-3.1,0.4-6.9,1-8.5,1.4c-2.8,0.6-7.7,1.6-15.3,3.2c-5.1,1-16.1,4.4-20.4,6.2
	c-1.9,0.7-4,1.6-4.8,1.8c-4.3,1.4-17.7,8.1-23,11.6c-8.5,5.7-9.8,6.6-13.3,9.7C25.2,50.2,14.1,67.1,8.7,86c-2.5,8.8-3.1,13.3-3,24.7
	c0,11.6,0.6,15.9,2.5,18.5c3.4,4.4,6,2.7,6-3.9c0-12.4,2.7-27.5,7.2-39.5c8.2-22.3,24.5-40.6,45.8-51.5c8.8-4.5,11.4-5.5,21.5-8.1
	c3.2-0.9,5.2-0.7,5,0.3c-0.1,0.6-4.4,2.8-11.1,5.6c-18.4,7.9-24,11.4-33.4,20.6c-13,12.7-20.5,25.2-25.4,42.4
	c-2.3,8.1-3,17.4-2.6,35.3c0.5,18.8,1.1,24.8,3.3,31.5c1.9,5.8,6.8,16.1,9.7,20.4c3.4,4.9,15.6,17,20.7,20.5c0.7,0.5,3.2,2.3,5.7,4
	c9.3,6.5,18.2,11.1,25.5,13c5.3,1.5,15.2,3.5,17,3.5s3,1.4,2,2.6c-0.8,1-5.9,1.1-10.2,0.3c-12.6-2.3-21.9-5.3-32.1-10.3
	c-11.3-5.6-23.6-16.4-33.7-29.6c-7.1-9.3-8.9-11-10.6-9.5c-3.2,2.6-0.1,12.8,7,22.7c6.3,8.9,19.2,20.4,28.2,25.1
	c18.7,10,41.9,14.1,64.7,11.5c18.2-2.2,34.1-7,50.5-15.4c3.6-1.8,5-2.7,10.7-6.5c0.9-0.6,2.7-1.9,4.1-2.8c3.9-2.7,15-13.6,18.8-18.5
	c14.2-18.7,21.9-35.4,24.6-53.5c1.5-10.1,0.6-34.4-1.8-47.4c-2.6-13.6-4.8-19.8-10.9-29.6c-4.1-6.6-4.9-7.6-10.7-13.4
	c-12.8-12.8-32.8-24.2-45.4-25.9c-11-1.5-12.3-1.8-13.5-2.9c-2.7-2.5-0.9-4.1,4-3.7c12.5,1,22.5,4.2,35.4,11.4
	c14.1,7.8,25.1,16.3,31.8,24.6c9.9,12.3,17.5,33.2,19.6,53.5c1,10,0.3,32.3-1.1,39.5c-3.2,15.1-5.3,21.6-10.3,31.7
	c-9.5,19-23.5,33.2-48.1,48.5c-3.2,2-4.4,3.6-3.9,5c0.3,0.7,1,0.9,3.3,0.6c5.7-0.6,13.6-4.8,23-11.7c6.3-4.6,6.3-4.8,10.2-8.1
	c3.1-2.6,17.1-16.1,21.2-21.5c8.3-10.8,12.9-19.4,16.3-30.8c4.3-14.6,6.1-30.9,5.6-50.1c-0.2-6.2-0.6-12.4-0.9-13.6
	c-0.3-1.2-1-4.8-1.7-7.9c-3.8-17.9-12.9-37-24.2-50.5c-14.9-18-33.9-28.2-62.7-33.6C156.4,2,134.1,1.6,126.9,2.5z"/>
<path id="path14" class="st0" d="M4.1,143c-1.9,2-2.5,5.4-1.8,10.3c1.1,7.6,2.8,11,6.8,12.9c3.1,1.6,5.2,1.6,6.5,0.2
	c0.9-1,0.9-1.6,0.3-6.9c-0.3-3.2-0.8-7.3-1-9c-0.6-6-2.5-8.5-6.7-8.9C6,141.3,5.6,141.4,4.1,143z"/>
<g class="st1">
	<path class="st2" d="M120.5,102.4c-0.2,0.2-0.4,0.5-0.6,0.7c-0.3,0.2-0.6,0.3-0.8,0.4c-0.4,0.1-0.6,0.3-0.8,0.3
		c-0.9,0.2-1.6,0.1-2.3-0.3c-0.7-0.3-1.3-0.8-1.7-1.4c-0.3-0.4-0.6-1.1-0.9-2.1l-1-2.8c-0.3-0.9-0.6-1.8-0.7-2.7
		c-0.2-0.8-0.4-1.4-0.4-1.8l-0.4-2.2c-0.2-0.9-0.4-1.8-0.6-2.8l-1-5c-0.3-1.5-0.6-3.2-0.8-4.8c-0.2-1.6-0.4-3.2-0.5-4.9
		c-0.9,3.3-1.6,6.6-2.1,10l-1.4,10c-0.1,0.5-0.2,1.1-0.2,1.9c-0.1,0.9-0.3,1.7-0.4,2.6c-0.2,0.9-0.3,1.7-0.5,2.6
		c-0.2,0.9-0.4,1.5-0.6,1.9c-0.3,0.5-0.6,1-1,1.3c-0.4,0.3-0.9,0.6-1.5,0.7c-0.9,0.2-1.7,0-2.4-0.5c-2.2-1.5-4.4-3.5-6.4-5.9
		c-2-2.4-3.9-4.9-5.5-7.6c-0.9-1.4-1.7-2.9-2.4-4.3c-0.7-1.4-1.4-2.8-2-4.1c0.1,1.3,0.3,2.5,0.5,3.6c0.2,1.2,0.5,2.5,0.7,3.7
		c0.7,3.3,1.3,6.2,1.9,8.7c0.6,2.4,1.2,4.3,1.7,5.5c0.3,0.6,0.6,1.2,0.9,1.7l0.5,0.9c0.1,0.4,0.3,0.7,0.3,1c0.1,0.4-0.1,0.7-0.3,1
		c-0.2,0.4-0.5,0.7-0.8,0.9c-0.4,0.3-0.8,0.5-1.2,0.6c-0.4,0.2-0.8,0.3-1,0.3c-1.2,0.3-2.2-0.1-2.8-1.2c-0.2-0.3-0.4-0.8-0.7-1.7
		c-0.3-0.8-0.7-1.9-1-3.4c-0.2-0.7-0.4-1.6-0.6-2.5L79,98.6l-0.8-4c-0.8-4-1.5-7.8-1.9-11.5c-0.5-3.7-0.7-7.1-0.6-10.1l0-0.2
		c0,0,0-0.1,0-0.2l-0.2-1.1c-0.1-0.7-0.1-1.3,0.2-1.8c0.3-0.4,1-0.9,2.2-1.1c0.4-0.1,0.9-0.1,1.4-0.2c0.5,0,0.9,0.1,1.4,0.2
		c0.5,0.2,1,0.3,1.4,0.5c0.4,0.2,0.7,0.6,0.9,1c0.5,0.9,0.8,1.8,1,2.8c0.3,1,0.6,1.9,0.9,2.8c1,2.6,2.1,5.1,3.3,7.4
		c1.1,2.4,2.5,4.7,4.1,6.9c1.7,2.5,3.6,4.8,5.7,6.9c0.2-0.9,0.5-2.2,0.8-3.8c0.2-1.6,0.6-3.5,0.9-5.7c0.3-2.3,0.7-4.6,1.1-7.1
		c0.4-2.4,0.8-4.7,1.3-6.9c0.5-2.2,1-4.1,1.6-5.8c0.6-1.7,1.3-3,2-3.8c0.4-0.4,1-0.7,1.7-1c0.7-0.3,1.3-0.5,1.9-0.6
		c0.2-0.1,0.5,0,0.9-0.1c0.3,0.1,0.6,0.1,0.9,0.1c0.3,0.1,0.6,0.2,0.9,0.4c0.2,0.2,0.4,0.4,0.5,0.7c0.1,0.2,0,0.5,0.1,0.8l0,1.1
		l0,1.2c0,0.4,0,0.7,0.1,1c0.1,2,0.3,4.1,0.5,6.1c0.2,2.1,0.6,4.3,1.1,6.4l1.7,8.3l0.9,3.7c0.2,1.2,0.5,2.3,0.9,3.6
		c0.2,0.8,0.5,1.5,0.8,2.1c0.3,0.7,0.7,1.3,1.1,2c0,0.1,0.1,0.3,0.3,0.4c0,0.2,0.1,0.4,0.3,0.5c0.3,0.3,0.4,0.6,0.5,0.9
		C120.8,101.9,120.7,102.2,120.5,102.4z"/>
	<path class="st2" d="M145.7,71.6c-0.1,0.4-0.2,0.8-0.4,1.1c-0.2,0.3-0.5,0.6-0.7,0.8c-0.3,0.3-0.6,0.4-1,0.5c-0.2,0-0.3,0.1-0.4,0
		l-0.5,0c-0.4,0-0.7-0.1-0.8,0c-0.6,0.1-1.3,0.5-1.8,0.8c-0.6,0.4-1.1,0.9-1.6,1.5c-0.5,0.6-0.9,1.1-1.3,1.7
		c-0.4,0.7-0.7,1.2-0.9,1.7c-0.3,0.6-0.5,1.3-0.8,2.2c-0.3,0.9-0.5,1.8-0.7,2.7c-0.3,1-0.5,1.8-0.5,2.7c-0.1,0.9-0.1,1.5,0,2
		c0.3,1.3,0.6,2.5,1.2,3.7c0.5,1.2,1,2.5,1.2,3.7c0.2,1-0.1,1.8-0.8,2.4c-0.8,0.7-1.6,1.1-2.6,1.3c-0.7,0.2-1.4,0.1-1.9-0.1
		c-0.5-0.1-1-0.4-1.4-0.7c-0.6-0.5-1-1.1-1.2-1.9c-0.3-0.8-0.5-1.5-0.7-2.2c-0.1-0.5-0.3-1.1-0.5-1.9l-0.6-2.4l-0.6-2.5l-1.2-5.6
		c-0.2-1.1-0.5-2.3-0.7-3.5l-0.2-1.8c-0.1-0.6-0.1-1.2-0.1-1.8c0-0.7,0.2-1.4,0.7-2c0.5-0.6,1.2-1,2.1-1.2c1.2-0.3,2.2-0.1,2.9,0.2
		c0.6,0.4,1.1,1.1,1.3,2.2c0.2,0.7,0.3,1.6,0.4,2.6l0.2,2.6c0.3-1,0.7-2.1,1.2-3.4c0.5-1.2,1.1-2.4,1.8-3.5c0.7-1.1,1.6-2.1,2.6-3.1
		c0.9-0.8,2-1.4,3.3-1.6c0.5-0.1,1-0.1,1.6-0.1c0.5,0.1,1.1,0.2,1.5,0.3c0.5,0.2,0.9,0.5,1.3,0.8c0.3,0.3,0.5,0.7,0.6,1.2
		C145.8,70.9,145.7,71.3,145.7,71.6z"/>
	<path class="st2" d="M164.1,92.6c-0.6,0.8-1.6,1.4-3.1,1.7c-0.5,0.1-1,0.1-1.6-0.1c-0.5-0.1-1.2-0.3-1.7-0.6
		c-0.7-0.2-1.1-0.5-1.4-0.9c-0.3-0.3-0.4-0.8-0.5-1.2c-0.2-0.9,0-1.7,0.8-2.5c0.7-0.8,1.5-1.3,2.5-1.5c1-0.2,1.8-0.2,2.5-0.2
		c0.7,0.1,1.2,0.3,1.6,0.5c0.4,0.3,0.8,0.6,1,1c0.2,0.4,0.4,0.8,0.5,1.2C164.9,90.9,164.7,91.8,164.1,92.6z"/>
</g>
<g class="st1">
	<path class="st3" d="M120.5,102.4c-0.2,0.2-0.4,0.5-0.6,0.7c-0.3,0.2-0.6,0.3-0.8,0.4c-0.4,0.1-0.6,0.3-0.8,0.3
		c-0.9,0.2-1.6,0.1-2.3-0.3c-0.7-0.3-1.3-0.8-1.7-1.4c-0.3-0.4-0.6-1.1-0.9-2.1l-1-2.8c-0.3-0.9-0.6-1.8-0.7-2.7
		c-0.2-0.8-0.4-1.4-0.4-1.8l-0.4-2.2c-0.2-0.9-0.4-1.8-0.6-2.8l-1-5c-0.3-1.5-0.6-3.2-0.8-4.8c-0.2-1.6-0.4-3.2-0.5-4.9
		c-0.9,3.3-1.6,6.6-2.1,10l-1.4,10c-0.1,0.5-0.2,1.1-0.2,1.9c-0.1,0.9-0.3,1.7-0.4,2.6c-0.2,0.9-0.3,1.7-0.5,2.6
		c-0.2,0.9-0.4,1.5-0.6,1.9c-0.3,0.5-0.6,1-1,1.3c-0.4,0.3-0.9,0.6-1.5,0.7c-0.9,0.2-1.7,0-2.4-0.5c-2.2-1.5-4.4-3.5-6.4-5.9
		c-2-2.4-3.9-4.9-5.5-7.6c-0.9-1.4-1.7-2.9-2.4-4.3c-0.7-1.4-1.4-2.8-2-4.1c0.1,1.3,0.3,2.5,0.5,3.6c0.2,1.2,0.5,2.5,0.7,3.7
		c0.7,3.3,1.3,6.2,1.9,8.7c0.6,2.4,1.2,4.3,1.7,5.5c0.3,0.6,0.6,1.2,0.9,1.7l0.5,0.9c0.1,0.4,0.3,0.7,0.3,1c0.1,0.4-0.1,0.7-0.3,1
		c-0.2,0.4-0.5,0.7-0.8,0.9c-0.4,0.3-0.8,0.5-1.2,0.6c-0.4,0.2-0.8,0.3-1,0.3c-1.2,0.3-2.2-0.1-2.8-1.2c-0.2-0.3-0.4-0.8-0.7-1.7
		c-0.3-0.8-0.7-1.9-1-3.4c-0.2-0.7-0.4-1.6-0.6-2.5L79,98.6l-0.8-4c-0.8-4-1.5-7.8-1.9-11.5c-0.5-3.7-0.7-7.1-0.6-10.1l0-0.2
		c0,0,0-0.1,0-0.2l-0.2-1.1c-0.1-0.7-0.1-1.3,0.2-1.8c0.3-0.4,1-0.9,2.2-1.1c0.4-0.1,0.9-0.1,1.4-0.2c0.5,0,0.9,0.1,1.4,0.2
		c0.5,0.2,1,0.3,1.4,0.5c0.4,0.2,0.7,0.6,0.9,1c0.5,0.9,0.8,1.8,1,2.8c0.3,1,0.6,1.9,0.9,2.8c1,2.6,2.1,5.1,3.3,7.4
		c1.1,2.4,2.5,4.7,4.1,6.9c1.7,2.5,3.6,4.8,5.7,6.9c0.2-0.9,0.5-2.2,0.8-3.8c0.2-1.6,0.6-3.5,0.9-5.7c0.3-2.3,0.7-4.6,1.1-7.1
		c0.4-2.4,0.8-4.7,1.3-6.9c0.5-2.2,1-4.1,1.6-5.8c0.6-1.7,1.3-3,2-3.8c0.4-0.4,1-0.7,1.7-1c0.7-0.3,1.3-0.5,1.9-0.6
		c0.2-0.1,0.5,0,0.9-0.1c0.3,0.1,0.6,0.1,0.9,0.1c0.3,0.1,0.6,0.2,0.9,0.4c0.2,0.2,0.4,0.4,0.5,0.7c0.1,0.2,0,0.5,0.1,0.8l0,1.1
		l0,1.2c0,0.4,0,0.7,0.1,1c0.1,2,0.3,4.1,0.5,6.1c0.2,2.1,0.6,4.3,1.1,6.4l1.7,8.3l0.9,3.7c0.2,1.2,0.5,2.3,0.9,3.6
		c0.2,0.8,0.5,1.5,0.8,2.1c0.3,0.7,0.7,1.3,1.1,2c0,0.1,0.1,0.3,0.3,0.4c0,0.2,0.1,0.4,0.3,0.5c0.3,0.3,0.4,0.6,0.5,0.9
		C120.8,101.9,120.7,102.2,120.5,102.4z"/>
	<path class="st3" d="M145.7,71.6c-0.1,0.4-0.2,0.8-0.4,1.1c-0.2,0.3-0.5,0.6-0.7,0.8c-0.3,0.3-0.6,0.4-1,0.5c-0.2,0-0.3,0.1-0.4,0
		l-0.5,0c-0.4,0-0.7-0.1-0.8,0c-0.6,0.1-1.3,0.5-1.8,0.8c-0.6,0.4-1.1,0.9-1.6,1.5c-0.5,0.6-0.9,1.1-1.3,1.7
		c-0.4,0.7-0.7,1.2-0.9,1.7c-0.3,0.6-0.5,1.3-0.8,2.2c-0.3,0.9-0.5,1.8-0.7,2.7c-0.3,1-0.5,1.8-0.5,2.7c-0.1,0.9-0.1,1.5,0,2
		c0.3,1.3,0.6,2.5,1.2,3.7c0.5,1.2,1,2.5,1.2,3.7c0.2,1-0.1,1.8-0.8,2.4c-0.8,0.7-1.6,1.1-2.6,1.3c-0.7,0.2-1.4,0.1-1.9-0.1
		c-0.5-0.1-1-0.4-1.4-0.7c-0.6-0.5-1-1.1-1.2-1.9c-0.3-0.8-0.5-1.5-0.7-2.2c-0.1-0.5-0.3-1.1-0.5-1.9l-0.6-2.4l-0.6-2.5l-1.2-5.6
		c-0.2-1.1-0.5-2.3-0.7-3.5l-0.2-1.8c-0.1-0.6-0.1-1.2-0.1-1.8c0-0.7,0.2-1.4,0.7-2c0.5-0.6,1.2-1,2.1-1.2c1.2-0.3,2.2-0.1,2.9,0.2
		c0.6,0.4,1.1,1.1,1.3,2.2c0.2,0.7,0.3,1.6,0.4,2.6l0.2,2.6c0.3-1,0.7-2.1,1.2-3.4c0.5-1.2,1.1-2.4,1.8-3.5c0.7-1.1,1.6-2.1,2.6-3.1
		c0.9-0.8,2-1.4,3.3-1.6c0.5-0.1,1-0.1,1.6-0.1c0.5,0.1,1.1,0.2,1.5,0.3c0.5,0.2,0.9,0.5,1.3,0.8c0.3,0.3,0.5,0.7,0.6,1.2
		C145.8,70.9,145.7,71.3,145.7,71.6z"/>
	<path class="st3" d="M164.1,92.6c-0.6,0.8-1.6,1.4-3.1,1.7c-0.5,0.1-1,0.1-1.6-0.1c-0.5-0.1-1.2-0.3-1.7-0.6
		c-0.7-0.2-1.1-0.5-1.4-0.9c-0.3-0.3-0.4-0.8-0.5-1.2c-0.2-0.9,0-1.7,0.8-2.5c0.7-0.8,1.5-1.3,2.5-1.5c1-0.2,1.8-0.2,2.5-0.2
		c0.7,0.1,1.2,0.3,1.6,0.5c0.4,0.3,0.8,0.6,1,1c0.2,0.4,0.4,0.8,0.5,1.2C164.9,90.9,164.7,91.8,164.1,92.6z"/>
</g>
<g class="st1">
	<path class="st2" d="M92.2,147.8c-0.4,2.1-1.2,3.9-2.3,5.5c-1.2,1.7-2.8,3-4.8,4.2c-2,1.2-4.3,2.1-7.1,2.6
		c-1.1,0.2-2.4,0.4-3.8,0.3c-1.5,0-2.9,0-4.3-0.3c0.5,1.6,0.9,3.1,1.5,4.5c0.6,1.6,1.1,2.9,1.8,4.1c0,0.1,0.1,0.2,0.3,0.5
		c0.1,0.2,0.2,0.4,0.4,0.6c0.4,0.6,0.7,1,0.7,1.1c0.1,0.4,0,0.8-0.1,1.1c-0.2,0.4-0.4,0.7-0.6,0.9l-1,0.6c-0.4,0.1-0.7,0.3-1,0.3
		c-0.7,0.1-1.3,0.1-2-0.1c-0.7-0.1-1.2-0.5-1.5-1.1c-0.7-1.1-1.3-2.6-1.9-4.3c-0.7-1.7-1.3-3.5-1.8-5.4c-0.6-1.8-1.1-3.6-1.5-5.5
		c-0.5-1.8-0.8-3.3-1.1-4.7c-0.5-2.6-1-5.2-1.3-7.8c-0.3-2.6-0.5-5.2-0.5-8l-0.1-0.4c-0.1-0.2-0.2-0.5-0.3-0.7l-0.4-0.7
		c-0.2-0.2-0.2-0.4-0.3-0.6c-0.1-0.4,0-0.8,0.1-1.2c0.2-0.3,0.5-0.6,0.9-1c0.3-0.2,0.8-0.4,1.2-0.6c0.4-0.2,0.8-0.3,1.2-0.4
		c0.6-0.1,1.1,0,1.8,0.1c0.7,0.2,1.2,0.5,1.6,1L66,133c0.5-0.7,1.4-1.4,2.7-2.2c1.3-0.7,2.9-1.3,4.9-1.7c0.8-0.2,1.6-0.3,2.5-0.3
		c0.8,0,1.7-0.1,2.5-0.1c1.7,0.2,3.4,0.7,4.9,1.4c1.5,0.9,2.8,1.8,4,3c1.1,1.2,2.2,2.5,3,4c0.8,1.5,1.3,2.9,1.6,4.2
		C92.6,143.6,92.6,145.8,92.2,147.8z M84.1,138.2c-0.8-1.2-1.8-2.3-2.8-3c-1.1-0.7-2.3-1.1-3.5-1.2s-2.4-0.1-3.5,0.1
		c-1.2,0.3-2.3,0.8-3.3,1.6c-1,0.9-2.1,2-3.1,3.6c-0.3,0.6-0.6,1.3-0.9,2.1c-0.3,1-0.4,1.8-0.4,2.7c0,0.8,0.1,1.3,0.2,1.8l0.2,1.4
		l0.4,1.7c0.1,0.6,0.2,1.5,0.5,2.5l0.6,2.8c0.5,0.2,1,0.4,1.6,0.5c0.6,0.2,1.2,0.3,1.9,0.4c0.7,0.1,1.5,0.2,2.2,0.2
		c0.8,0,1.6-0.1,2.5-0.3c1.6-0.3,3.1-0.8,4.4-1.6c1.3-0.8,2.4-1.7,3.3-2.9c0.8-1.1,1.5-2.2,1.8-3.6c0.3-1.4,0.3-2.8,0-4.3
		C85.7,141.1,85,139.5,84.1,138.2z"/>
	<path class="st2" d="M105.5,131.7c-0.6,0.8-1.5,1.2-2.6,1.4c-1.4,0.3-2.5,0.1-3.7-0.4c-1.3-0.6-2.1-1.5-2.4-2.7
		c-0.2-1,0-1.9,0.7-2.7c0.7-0.8,1.6-1.4,2.6-1.6c0.7-0.1,1.3-0.1,2-0.1c0.6,0.1,1.2,0.3,1.8,0.5c1.2,0.7,1.9,1.5,2.1,2.7
		C106.3,130,106.1,131,105.5,131.7z M107.2,141.7c0,0.5,0,0.9,0,1.4c0,0.3,0,0.6,0.1,1l0.1,1.1l0.1,1.1l0.2,0.7
		c0.1,0.5,0.2,1.2,0.4,2.1c0.1,1,0.3,1.9,0.5,2.8l0.9,4.1l0.5,2.2c0.1,0.7,0.4,1.3,0.7,1.8c0,0.2,0.1,0.3,0.2,0.4
		c0,0.1,0.1,0.2,0.1,0.4c0,0.1,0.1,0.2,0.1,0.3c0,0.1,0,0.2,0.1,0.2c0.2,0.7,0.1,1.6-0.1,2.5c-0.1,0.7-0.4,1.2-1,1.6
		c-0.6,0.4-1,0.7-1.5,0.8c-0.5,0.1-1,0-1.7-0.2c-0.6-0.3-1-0.4-1.1-0.5c-0.6-0.3-1-0.7-1.3-1.2c-0.3-0.4-0.5-1-0.6-1.5l-1.1-5.4
		l-2.5-12.5c-0.2-1.2-0.4-2.1-0.4-2.9c-0.1-0.7,0-1.3,0.2-1.7c0.2-0.4,0.5-0.7,1-0.9c0.4-0.2,0.8-0.4,1.2-0.4
		c0.7-0.2,1.6-0.1,2.4,0.1c0.5,0.2,1,0.4,1.5,0.7c0.5,0.4,0.8,0.7,0.9,1.2C107.1,140.9,107.1,141.2,107.2,141.7z"/>
	<path class="st2" d="M141,159.2c-0.6,0.1-1.3,0.1-1.9,0.3c-2.2,0.4-4.3,1-6.4,1.6c-2.1,0.7-4.2,1.3-6.3,1.7
		c-0.7,0.2-1.5,0.2-2.3,0.2c-0.8,0-1.5-0.2-2.1-0.5c-0.7-0.2-1.2-0.5-1.7-0.9c-0.5-0.4-0.7-1-0.9-1.8c-0.1-0.6,0-1.5,0.4-2.5
		c0.3-1,0.9-2,1.5-3.2c0.7-1.2,1.5-2.4,2.5-3.7c0.9-1.3,1.8-2.6,2.8-3.8l2.9-3.6l2.5-3c0.7-0.8,1.2-1.5,1.7-2
		c0.4-0.5,0.7-0.8,0.6-0.9l-0.1,0l-0.1,0l-0.1,0c-2.1,0.4-4,1.1-5.9,1.9c-1.9,0.8-3.8,1.7-5.5,2.7l-1.4,0.7
		c-0.6,0.3-1.1,0.4-1.5,0.5c-1,0.2-1.8,0-2.5-0.4c-0.7-0.5-1.2-1.1-1.3-1.8c-0.3-1.4,0.3-2.5,1.9-3.2c2.7-1.3,5.4-2.4,8.2-3.4
		c2.8-0.9,5.6-1.7,8.6-2.3c0.6-0.1,1.3-0.1,2.1-0.1c0.8,0.1,1.5,0.3,2.2,0.6c0.7,0.3,1.3,0.7,1.8,1.1c0.5,0.5,0.8,1,1,1.5
		c0.1,0.7,0.1,1.3-0.2,2c-0.2,0.7-0.6,1.3-1,1.9s-0.8,1.2-1.2,1.7c-0.5,0.6-1,1.2-1.5,1.7l-1.3,1.5l-2,2.5c-0.8,0.9-1.5,1.9-2.4,2.9
		c-0.9,1.1-1.7,2.1-2.4,3c-0.6,0.9-1.1,1.7-1.5,2.2c-0.4,0.7-0.8,1.3-1,1.7c-0.3,0.4-0.5,0.9-0.6,1.2c-0.1,0.2-0.2,0.4-0.2,0.5
		l0.6-0.1c0,0,0-0.1,0.1-0.1c0.7-0.2,1.5-0.3,2.5-0.6l2.7-0.7l2.7-0.8c0.9-0.2,1.6-0.5,2.3-0.8c0.2,0,0.4-0.2,0.7-0.2
		c0.2,0,0.4-0.1,0.6-0.3c0.2,0,0.4-0.2,0.7-0.2c0.2-0.1,0.4-0.2,0.7-0.2c0.5-0.1,1.1-0.2,1.8-0.2c0.6,0,1.3,0,1.9,0.1
		c0.6,0.1,1.2,0.4,1.6,0.7c0.5,0.4,0.7,0.8,0.9,1.4c0.1,0.6,0.1,1-0.1,1.4c-0.2,0.4-0.5,0.7-0.8,1c-0.3,0.3-0.7,0.5-1.2,0.6
		c-0.5,0.2-1,0.3-1.4,0.4C142.3,159.1,141.7,159.2,141,159.2z"/>
	<path class="st2" d="M172.5,152.7c-0.6,0.1-1.3,0.1-1.9,0.3c-2.2,0.4-4.3,1-6.4,1.6c-2.1,0.7-4.2,1.3-6.3,1.7
		c-0.7,0.2-1.5,0.2-2.3,0.2c-0.8,0-1.5-0.2-2.1-0.5c-0.7-0.2-1.2-0.5-1.7-0.9c-0.5-0.4-0.7-1-0.9-1.8c-0.1-0.6,0-1.5,0.4-2.5
		c0.3-1,0.9-2,1.5-3.2c0.7-1.2,1.5-2.4,2.5-3.7c0.9-1.3,1.8-2.6,2.8-3.8l2.9-3.6l2.5-3c0.7-0.8,1.2-1.5,1.7-2
		c0.4-0.5,0.7-0.8,0.6-0.9l-0.1-0.1l-0.1,0l-0.1,0c-2.1,0.4-4,1.1-5.9,1.9c-1.9,0.8-3.8,1.7-5.5,2.7l-1.4,0.7
		c-0.6,0.3-1.1,0.4-1.5,0.5c-1,0.2-1.8,0-2.5-0.4c-0.7-0.5-1.2-1.1-1.3-1.8c-0.3-1.4,0.3-2.5,1.9-3.2c2.7-1.3,5.4-2.4,8.2-3.4
		c2.8-0.9,5.6-1.7,8.6-2.3c0.6-0.1,1.3-0.1,2.1-0.1c0.8,0.1,1.5,0.3,2.2,0.6c0.7,0.3,1.3,0.7,1.8,1.1c0.5,0.5,0.8,1,1,1.5
		c0.1,0.7,0.1,1.3-0.2,2c-0.2,0.7-0.6,1.3-1,1.9s-0.8,1.2-1.2,1.7c-0.5,0.6-1,1.2-1.5,1.7l-1.3,1.5l-2,2.5c-0.8,0.9-1.5,1.9-2.4,2.9
		c-0.9,1.1-1.7,2.1-2.4,3c-0.6,0.9-1.1,1.7-1.5,2.2c-0.4,0.7-0.8,1.3-1,1.7c-0.3,0.4-0.5,0.9-0.6,1.2c-0.1,0.2-0.2,0.4-0.2,0.5
		l0.6-0.1c0,0,0-0.1,0.1-0.1c0.7-0.2,1.5-0.3,2.5-0.6l2.7-0.7l2.7-0.8c0.9-0.2,1.6-0.5,2.3-0.8c0.2,0,0.4-0.2,0.7-0.2
		c0.2,0,0.4-0.1,0.6-0.3c0.2,0,0.4-0.2,0.7-0.2c0.2-0.1,0.4-0.2,0.7-0.2c0.5-0.1,1.1-0.2,1.8-0.2c0.6,0,1.3,0,1.9,0.1
		c0.6,0.1,1.2,0.4,1.6,0.7c0.5,0.4,0.7,0.8,0.9,1.4c0.1,0.6,0.1,1-0.1,1.4c-0.2,0.4-0.5,0.7-0.8,1s-0.7,0.5-1.2,0.6
		c-0.5,0.2-1,0.3-1.4,0.4C173.8,152.6,173.2,152.7,172.5,152.7z"/>
	<path class="st2" d="M210.7,143.9c0,0.5-0.1,0.9-0.2,1.3c-0.2,0.4-0.5,0.7-0.9,1.1c-0.4,0.3-1,0.6-1.7,0.7c-1.4,0.3-2.3,0-3-0.7
		c-0.7-0.6-1.2-1.6-1.4-2.8c-1,1.2-2.3,2.1-3.8,2.8c-1.5,0.8-3,1.3-4.4,1.6c-1.7,0.4-3.4,0.6-4.9,0.5c-1.6-0.1-3-0.3-4.1-0.7
		c-1.2-0.4-2.1-1-2.9-1.7c-0.8-0.7-1.3-1.7-1.5-2.8c-0.3-1.2-0.1-2.4,0.4-3.5c0.5-1.1,1.2-2.1,2.3-3.1c1-0.9,2.2-1.8,3.6-2.6
		c1.4-0.7,2.9-1.4,4.3-2.1c1.5-0.6,3-1.2,4.4-1.7c1.4-0.4,2.7-0.8,3.8-1.1c-0.3-0.6-0.5-1.2-0.9-1.9c-0.4-0.6-0.9-1.1-1.5-1.6
		c-0.6-0.4-1.3-0.7-2.1-0.9c-0.8-0.2-1.6-0.2-2.5,0c-1.6,0.3-2.8,0.9-3.7,1.6c-0.9,0.7-1.6,1.5-2.1,2.2c-0.2,0.2-0.4,0.5-0.5,0.6
		c-0.1,0.2-0.3,0.4-0.4,0.5c-0.1,0.2-0.3,0.4-0.4,0.5c-0.1,0.2-0.3,0.4-0.4,0.5c-0.3,0.3-0.6,0.6-0.9,0.8c-0.3,0.3-0.8,0.4-1.2,0.5
		c-1,0.2-1.8,0-2.5-0.5c-0.7-0.5-1.1-1.1-1.3-1.9c-0.2-1.1,0.1-2.1,1-3.1c0.8-0.9,1.9-1.9,3-2.9c1.4-1.1,2.9-2,4.6-2.8
		c1.7-0.7,3-1.1,4.2-1.4c2-0.4,3.8-0.4,5.5,0c1.6,0.4,3.1,1.2,4.3,2.1c1.2,1,2.3,2.2,3.1,3.6c0.7,1.4,1.3,2.8,1.6,4.3
		c0.3,1.4,0.6,2.8,0.9,4.2c0.4,1.4,0.7,2.8,1,4.2l0.5,2.3c0.2,0.7,0.4,1.5,0.5,2.2C210.6,143,210.6,143.5,210.7,143.9z M197.7,134.7
		c-1.6,0.5-3,1-4.4,1.7c-1.3,0.7-2.4,1.5-3.3,2.3c-0.9,0.8-1.2,1.8-1,2.9c0.1,0.5,0.3,0.9,0.7,1.2c0.4,0.4,0.9,0.6,1.4,0.7
		c0.5,0.2,1,0.4,1.7,0.4c0.6,0.1,1.2,0,1.8-0.1c1.7-0.4,3.3-1,4.7-1.9c1.4-0.9,2.4-2.1,3.1-3.5l-0.9-4.6
		C200.5,133.9,199.2,134.3,197.7,134.7z"/>
</g>
<g class="st1">
	<path class="st3" d="M92.2,147.8c-0.4,2.1-1.2,3.9-2.3,5.5c-1.2,1.7-2.8,3-4.8,4.2c-2,1.2-4.3,2.1-7.1,2.6
		c-1.1,0.2-2.4,0.4-3.8,0.3c-1.5,0-2.9,0-4.3-0.3c0.5,1.6,0.9,3.1,1.5,4.5c0.6,1.6,1.1,2.9,1.8,4.1c0,0.1,0.1,0.2,0.3,0.5
		c0.1,0.2,0.2,0.4,0.4,0.6c0.4,0.6,0.7,1,0.7,1.1c0.1,0.4,0,0.8-0.1,1.1c-0.2,0.4-0.4,0.7-0.6,0.9l-1,0.6c-0.4,0.1-0.7,0.3-1,0.3
		c-0.7,0.1-1.3,0.1-2-0.1c-0.7-0.1-1.2-0.5-1.5-1.1c-0.7-1.1-1.3-2.6-1.9-4.3c-0.7-1.7-1.3-3.5-1.8-5.4c-0.6-1.8-1.1-3.6-1.5-5.5
		c-0.5-1.8-0.8-3.3-1.1-4.7c-0.5-2.6-1-5.2-1.3-7.8c-0.3-2.6-0.5-5.2-0.5-8l-0.1-0.4c-0.1-0.2-0.2-0.5-0.3-0.7l-0.4-0.7
		c-0.2-0.2-0.2-0.4-0.3-0.6c-0.1-0.4,0-0.8,0.1-1.2c0.2-0.3,0.5-0.6,0.9-1c0.3-0.2,0.8-0.4,1.2-0.6c0.4-0.2,0.8-0.3,1.2-0.4
		c0.6-0.1,1.1,0,1.8,0.1c0.7,0.2,1.2,0.5,1.6,1L66,133c0.5-0.7,1.4-1.4,2.7-2.2c1.3-0.7,2.9-1.3,4.9-1.7c0.8-0.2,1.6-0.3,2.5-0.3
		c0.8,0,1.7-0.1,2.5-0.1c1.7,0.2,3.4,0.7,4.9,1.4c1.5,0.9,2.8,1.8,4,3c1.1,1.2,2.2,2.5,3,4c0.8,1.5,1.3,2.9,1.6,4.2
		C92.6,143.6,92.6,145.8,92.2,147.8z M84.1,138.2c-0.8-1.2-1.8-2.3-2.8-3c-1.1-0.7-2.3-1.1-3.5-1.2s-2.4-0.1-3.5,0.1
		c-1.2,0.3-2.3,0.8-3.3,1.6c-1,0.9-2.1,2-3.1,3.6c-0.3,0.6-0.6,1.3-0.9,2.1c-0.3,1-0.4,1.8-0.4,2.7c0,0.8,0.1,1.3,0.2,1.8l0.2,1.4
		l0.4,1.7c0.1,0.6,0.2,1.5,0.5,2.5l0.6,2.8c0.5,0.2,1,0.4,1.6,0.5c0.6,0.2,1.2,0.3,1.9,0.4c0.7,0.1,1.5,0.2,2.2,0.2
		c0.8,0,1.6-0.1,2.5-0.3c1.6-0.3,3.1-0.8,4.4-1.6c1.3-0.8,2.4-1.7,3.3-2.9c0.8-1.1,1.5-2.2,1.8-3.6c0.3-1.4,0.3-2.8,0-4.3
		C85.7,141.1,85,139.5,84.1,138.2z"/>
	<path class="st3" d="M105.5,131.7c-0.6,0.8-1.5,1.2-2.6,1.4c-1.4,0.3-2.5,0.1-3.7-0.4c-1.3-0.6-2.1-1.5-2.4-2.7
		c-0.2-1,0-1.9,0.7-2.7c0.7-0.8,1.6-1.4,2.6-1.6c0.7-0.1,1.3-0.1,2-0.1c0.6,0.1,1.2,0.3,1.8,0.5c1.2,0.7,1.9,1.5,2.1,2.7
		C106.3,130,106.1,131,105.5,131.7z M107.2,141.7c0,0.5,0,0.9,0,1.4c0,0.3,0,0.6,0.1,1l0.1,1.1l0.1,1.1l0.2,0.7
		c0.1,0.5,0.2,1.2,0.4,2.1c0.1,1,0.3,1.9,0.5,2.8l0.9,4.1l0.5,2.2c0.1,0.7,0.4,1.3,0.7,1.8c0,0.2,0.1,0.3,0.2,0.4
		c0,0.1,0.1,0.2,0.1,0.4c0,0.1,0.1,0.2,0.1,0.3c0,0.1,0,0.2,0.1,0.2c0.2,0.7,0.1,1.6-0.1,2.5c-0.1,0.7-0.4,1.2-1,1.6
		c-0.6,0.4-1,0.7-1.5,0.8c-0.5,0.1-1,0-1.7-0.2c-0.6-0.3-1-0.4-1.1-0.5c-0.6-0.3-1-0.7-1.3-1.2c-0.3-0.4-0.5-1-0.6-1.5l-1.1-5.4
		l-2.5-12.5c-0.2-1.2-0.4-2.1-0.4-2.9c-0.1-0.7,0-1.3,0.2-1.7c0.2-0.4,0.5-0.7,1-0.9c0.4-0.2,0.8-0.4,1.2-0.4
		c0.7-0.2,1.6-0.1,2.4,0.1c0.5,0.2,1,0.4,1.5,0.7c0.5,0.4,0.8,0.7,0.9,1.2C107.1,140.9,107.1,141.2,107.2,141.7z"/>
	<path class="st3" d="M141,159.2c-0.6,0.1-1.3,0.1-1.9,0.3c-2.2,0.4-4.3,1-6.4,1.6c-2.1,0.7-4.2,1.3-6.3,1.7
		c-0.7,0.2-1.5,0.2-2.3,0.2c-0.8,0-1.5-0.2-2.1-0.5c-0.7-0.2-1.2-0.5-1.7-0.9c-0.5-0.4-0.7-1-0.9-1.8c-0.1-0.6,0-1.5,0.4-2.5
		c0.3-1,0.9-2,1.5-3.2c0.7-1.2,1.5-2.4,2.5-3.7c0.9-1.3,1.8-2.6,2.8-3.8l2.9-3.6l2.5-3c0.7-0.8,1.2-1.5,1.7-2
		c0.4-0.5,0.7-0.8,0.6-0.9l-0.1,0l-0.1,0l-0.1,0c-2.1,0.4-4,1.1-5.9,1.9c-1.9,0.8-3.8,1.7-5.5,2.7l-1.4,0.7
		c-0.6,0.3-1.1,0.4-1.5,0.5c-1,0.2-1.8,0-2.5-0.4c-0.7-0.5-1.2-1.1-1.3-1.8c-0.3-1.4,0.3-2.5,1.9-3.2c2.7-1.3,5.4-2.4,8.2-3.4
		c2.8-0.9,5.6-1.7,8.6-2.3c0.6-0.1,1.3-0.1,2.1-0.1c0.8,0.1,1.5,0.3,2.2,0.6c0.7,0.3,1.3,0.7,1.8,1.1c0.5,0.5,0.8,1,1,1.5
		c0.1,0.7,0.1,1.3-0.2,2c-0.2,0.7-0.6,1.3-1,1.9s-0.8,1.2-1.2,1.7c-0.5,0.6-1,1.2-1.5,1.7l-1.3,1.5l-2,2.5c-0.8,0.9-1.5,1.9-2.4,2.9
		c-0.9,1.1-1.7,2.1-2.4,3c-0.6,0.9-1.1,1.7-1.5,2.2c-0.4,0.7-0.8,1.3-1,1.7c-0.3,0.4-0.5,0.9-0.6,1.2c-0.1,0.2-0.2,0.4-0.2,0.5
		l0.6-0.1c0,0,0-0.1,0.1-0.1c0.7-0.2,1.5-0.3,2.5-0.6l2.7-0.7l2.7-0.8c0.9-0.2,1.6-0.5,2.3-0.8c0.2,0,0.4-0.2,0.7-0.2
		c0.2,0,0.4-0.1,0.6-0.3c0.2,0,0.4-0.2,0.7-0.2c0.2-0.1,0.4-0.2,0.7-0.2c0.5-0.1,1.1-0.2,1.8-0.2c0.6,0,1.3,0,1.9,0.1
		c0.6,0.1,1.2,0.4,1.6,0.7c0.5,0.4,0.7,0.8,0.9,1.4c0.1,0.6,0.1,1-0.1,1.4c-0.2,0.4-0.5,0.7-0.8,1c-0.3,0.3-0.7,0.5-1.2,0.6
		c-0.5,0.2-1,0.3-1.4,0.4C142.3,159.1,141.7,159.2,141,159.2z"/>
	<path class="st3" d="M172.5,152.7c-0.6,0.1-1.3,0.1-1.9,0.3c-2.2,0.4-4.3,1-6.4,1.6c-2.1,0.7-4.2,1.3-6.3,1.7
		c-0.7,0.2-1.5,0.2-2.3,0.2c-0.8,0-1.5-0.2-2.1-0.5c-0.7-0.2-1.2-0.5-1.7-0.9c-0.5-0.4-0.7-1-0.9-1.8c-0.1-0.6,0-1.5,0.4-2.5
		c0.3-1,0.9-2,1.5-3.2c0.7-1.2,1.5-2.4,2.5-3.7c0.9-1.3,1.8-2.6,2.8-3.8l2.9-3.6l2.5-3c0.7-0.8,1.2-1.5,1.7-2
		c0.4-0.5,0.7-0.8,0.6-0.9l-0.1-0.1l-0.1,0l-0.1,0c-2.1,0.4-4,1.1-5.9,1.9c-1.9,0.8-3.8,1.7-5.5,2.7l-1.4,0.7
		c-0.6,0.3-1.1,0.4-1.5,0.5c-1,0.2-1.8,0-2.5-0.4c-0.7-0.5-1.2-1.1-1.3-1.8c-0.3-1.4,0.3-2.5,1.9-3.2c2.7-1.3,5.4-2.4,8.2-3.4
		c2.8-0.9,5.6-1.7,8.6-2.3c0.6-0.1,1.3-0.1,2.1-0.1c0.8,0.1,1.5,0.3,2.2,0.6c0.7,0.3,1.3,0.7,1.8,1.1c0.5,0.5,0.8,1,1,1.5
		c0.1,0.7,0.1,1.3-0.2,2c-0.2,0.7-0.6,1.3-1,1.9s-0.8,1.2-1.2,1.7c-0.5,0.6-1,1.2-1.5,1.7l-1.3,1.5l-2,2.5c-0.8,0.9-1.5,1.9-2.4,2.9
		c-0.9,1.1-1.7,2.1-2.4,3c-0.6,0.9-1.1,1.7-1.5,2.2c-0.4,0.7-0.8,1.3-1,1.7c-0.3,0.4-0.5,0.9-0.6,1.2c-0.1,0.2-0.2,0.4-0.2,0.5
		l0.6-0.1c0,0,0-0.1,0.1-0.1c0.7-0.2,1.5-0.3,2.5-0.6l2.7-0.7l2.7-0.8c0.9-0.2,1.6-0.5,2.3-0.8c0.2,0,0.4-0.2,0.7-0.2
		c0.2,0,0.4-0.1,0.6-0.3c0.2,0,0.4-0.2,0.7-0.2c0.2-0.1,0.4-0.2,0.7-0.2c0.5-0.1,1.1-0.2,1.8-0.2c0.6,0,1.3,0,1.9,0.1
		c0.6,0.1,1.2,0.4,1.6,0.7c0.5,0.4,0.7,0.8,0.9,1.4c0.1,0.6,0.1,1-0.1,1.4c-0.2,0.4-0.5,0.7-0.8,1s-0.7,0.5-1.2,0.6
		c-0.5,0.2-1,0.3-1.4,0.4C173.8,152.6,173.2,152.7,172.5,152.7z"/>
	<path class="st3" d="M210.7,143.9c0,0.5-0.1,0.9-0.2,1.3c-0.2,0.4-0.5,0.7-0.9,1.1c-0.4,0.3-1,0.6-1.7,0.7c-1.4,0.3-2.3,0-3-0.7
		c-0.7-0.6-1.2-1.6-1.4-2.8c-1,1.2-2.3,2.1-3.8,2.8c-1.5,0.8-3,1.3-4.4,1.6c-1.7,0.4-3.4,0.6-4.9,0.5c-1.6-0.1-3-0.3-4.1-0.7
		c-1.2-0.4-2.1-1-2.9-1.7c-0.8-0.7-1.3-1.7-1.5-2.8c-0.3-1.2-0.1-2.4,0.4-3.5c0.5-1.1,1.2-2.1,2.3-3.1c1-0.9,2.2-1.8,3.6-2.6
		c1.4-0.7,2.9-1.4,4.3-2.1c1.5-0.6,3-1.2,4.4-1.7c1.4-0.4,2.7-0.8,3.8-1.1c-0.3-0.6-0.5-1.2-0.9-1.9c-0.4-0.6-0.9-1.1-1.5-1.6
		c-0.6-0.4-1.3-0.7-2.1-0.9c-0.8-0.2-1.6-0.2-2.5,0c-1.6,0.3-2.8,0.9-3.7,1.6c-0.9,0.7-1.6,1.5-2.1,2.2c-0.2,0.2-0.4,0.5-0.5,0.6
		c-0.1,0.2-0.3,0.4-0.4,0.5c-0.1,0.2-0.3,0.4-0.4,0.5c-0.1,0.2-0.3,0.4-0.4,0.5c-0.3,0.3-0.6,0.6-0.9,0.8c-0.3,0.3-0.8,0.4-1.2,0.5
		c-1,0.2-1.8,0-2.5-0.5c-0.7-0.5-1.1-1.1-1.3-1.9c-0.2-1.1,0.1-2.1,1-3.1c0.8-0.9,1.9-1.9,3-2.9c1.4-1.1,2.9-2,4.6-2.8
		c1.7-0.7,3-1.1,4.2-1.4c2-0.4,3.8-0.4,5.5,0c1.6,0.4,3.1,1.2,4.3,2.1c1.2,1,2.3,2.2,3.1,3.6c0.7,1.4,1.3,2.8,1.6,4.3
		c0.3,1.4,0.6,2.8,0.9,4.2c0.4,1.4,0.7,2.8,1,4.2l0.5,2.3c0.2,0.7,0.4,1.5,0.5,2.2C210.6,143,210.6,143.5,210.7,143.9z M197.7,134.7
		c-1.6,0.5-3,1-4.4,1.7c-1.3,0.7-2.4,1.5-3.3,2.3c-0.9,0.8-1.2,1.8-1,2.9c0.1,0.5,0.3,0.9,0.7,1.2c0.4,0.4,0.9,0.6,1.4,0.7
		c0.5,0.2,1,0.4,1.7,0.4c0.6,0.1,1.2,0,1.8-0.1c1.7-0.4,3.3-1,4.7-1.9c1.4-0.9,2.4-2.1,3.1-3.5l-0.9-4.6
		C200.5,133.9,199.2,134.3,197.7,134.7z"/>
</g>
</svg>
